<svg width="71" height="71" viewBox="0 0 71 71" fill="none" xmlns="http://www.w3.org/2000/svg">
<path d="M6.23554 18.5633L35.3466 1.73265L64.4576 18.5633V52.2282L35.3466 69.0588L6.23554 52.2282V18.5633Z" stroke="#C0C0C0" stroke-width="3"/>
<path d="M32.9103 33.9766L32.9105 33.9766L37.5912 35.2916C39.0619 35.7067 40.0816 37.0486 40.0877 38.555C40.0872 40.4217 38.5481 41.9475 36.6542 41.9475H36.1471H35.6471V42.4475V45.0518C35.6471 45.0548 35.6465 45.0569 35.6457 45.0588C35.6448 45.0611 35.6431 45.0638 35.6405 45.0664C35.6392 45.0676 35.638 45.0686 35.6368 45.0695C35.6355 45.0704 35.6342 45.071 35.6331 45.0715C35.6314 45.0722 35.6296 45.0727 35.6269 45.0727H34.5866C34.584 45.0727 34.5822 45.0722 34.5804 45.0715C34.5783 45.0706 34.5757 45.069 34.5731 45.0664C34.5705 45.0638 34.5688 45.0611 34.5678 45.0588C34.567 45.0569 34.5665 45.0548 34.5665 45.0518V42.4475V41.9475H34.0665H33.7284C32.6055 41.9475 31.5451 41.5752 30.6848 40.8908L30.6836 40.8899C30.6784 40.8857 30.6757 40.882 30.6741 40.8788C30.6722 40.8752 30.6711 40.8712 30.6708 40.8673C30.6706 40.8634 30.6712 40.8607 30.6717 40.8592C30.6719 40.8588 30.6721 40.8582 30.6727 40.8573C30.6732 40.8565 30.674 40.8554 30.6753 40.8541L30.6784 40.851L31.41 40.1054C31.4102 40.1052 31.4105 40.1049 31.4107 40.1047C31.4165 40.0991 31.4218 40.0977 31.425 40.0974C31.4267 40.0973 31.4278 40.0975 31.4284 40.0977C31.4285 40.0977 31.4289 40.0978 31.4295 40.0981C31.4301 40.0984 31.431 40.0989 31.4321 40.0998L31.4329 40.1003C32.0852 40.5884 32.8861 40.8576 33.7219 40.8576H36.6477C37.9336 40.8576 39.0007 39.8307 39.0007 38.5476C39.0007 37.5158 38.2922 36.608 37.2968 36.3279L37.2966 36.3279L32.6164 35.013C32.6163 35.013 32.6162 35.0129 32.6162 35.0129C31.1502 34.5974 30.1258 33.2546 30.1258 31.7504C30.1258 29.8832 31.6651 28.3569 33.5594 28.3569H34.0665H34.5665V27.8569V25.2526C34.5665 25.2497 34.567 25.2476 34.5678 25.2457C34.5688 25.2434 34.5705 25.2407 34.5731 25.2381C34.5757 25.2355 34.5783 25.2339 34.5804 25.233C34.5822 25.2322 34.584 25.2318 34.5866 25.2318H35.6269C35.6278 25.2318 35.6286 25.2318 35.6293 25.2319C35.6308 25.2321 35.632 25.2325 35.6331 25.233C35.6352 25.2339 35.6379 25.2355 35.6405 25.2381C35.6431 25.2407 35.6448 25.2434 35.6457 25.2457C35.6465 25.2476 35.6471 25.2497 35.6471 25.2526V27.8569V28.3569H36.1471H36.4786C37.6016 28.3569 38.662 28.7292 39.5222 29.4136L39.5234 29.4146C39.5287 29.4187 39.5314 29.4225 39.533 29.4257C39.5349 29.4293 39.536 29.4333 39.5362 29.4372C39.5365 29.4411 39.5359 29.4438 39.5354 29.4452C39.535 29.4461 39.5344 29.4477 39.5317 29.4503L39.5287 29.4535L38.797 30.1991C38.7968 30.1993 38.7966 30.1995 38.7964 30.1997C38.7905 30.2053 38.7853 30.2068 38.782 30.207C38.7803 30.2072 38.7793 30.207 38.7787 30.2068C38.7784 30.2067 38.7772 30.2064 38.7749 30.2047L38.7742 30.2041C38.1218 29.716 37.321 29.4469 36.4851 29.4469H33.5594C32.2734 29.4469 31.2064 30.4738 31.2064 31.7569C31.2064 32.7887 31.9148 33.6964 32.9103 33.9766ZM23.6638 21.0714H46.5498C47.9959 21.0714 49.1706 22.2467 49.1706 23.6966V46.6144C49.1706 48.0643 47.9959 49.2396 46.5498 49.2396H23.6638C22.2176 49.2396 21.043 48.0643 21.043 46.6144V23.6966C21.043 22.2467 22.2176 21.0714 23.6638 21.0714ZM46.5498 48.1561C47.3987 48.1561 48.0901 47.4628 48.0901 46.6144V23.6966C48.0901 22.8481 47.3987 22.1549 46.5498 22.1549H23.6638C22.8148 22.1549 22.1235 22.8481 22.1235 23.6966V46.6144C22.1235 47.4628 22.8148 48.1561 23.6638 48.1561H46.5498Z" fill="white" stroke="#C0C0C0"/>
</svg>
