<svg width="71" height="71" viewBox="0 0 71 71" fill="none" xmlns="http://www.w3.org/2000/svg">
<g clip-path="url(#clip0)">
<path d="M47.8384 35.1619H41.782V34.3049H43.416C43.6237 34.3049 43.7922 34.1362 43.7922 33.9282C43.7922 33.7202 43.6237 33.5515 43.416 33.5515H41.782V32.6945H42.9164C43.3391 32.6945 43.7364 32.5297 44.0353 32.2304L46.5091 29.7531C46.6703 29.8335 46.849 29.8763 47.0344 29.8763C47.3496 29.8763 47.646 29.7534 47.8689 29.5302C48.0919 29.3069 48.2146 29.0102 48.2146 28.6945C48.2146 28.3788 48.0919 28.082 47.8689 27.8587C47.646 27.6355 47.3496 27.5126 47.0344 27.5126C46.7191 27.5126 46.4228 27.6355 46.1998 27.8587C45.9769 28.0819 45.8541 28.3787 45.8541 28.6944C45.8541 28.88 45.8968 29.059 45.9771 29.2204L43.5033 31.6977C43.3465 31.8546 43.1381 31.9411 42.9164 31.9411H41.7819V31.11C41.7819 30.0144 40.8917 29.123 39.7977 29.123H38.9677V25.7885C39.4345 25.6308 39.7718 25.1885 39.7718 24.6685C39.7718 24.0168 39.2423 23.4866 38.5916 23.4866C37.9408 23.4866 37.4114 24.0168 37.4114 24.6685C37.4114 25.1885 37.7486 25.6308 38.2154 25.7885V29.123H37.3596V27.4866C37.3596 27.2786 37.1912 27.11 36.9835 27.11C36.7757 27.11 36.6073 27.2786 36.6073 27.4866V29.123H35.7514V23.0581C35.7514 22.8501 35.583 22.6815 35.3753 22.6815C35.1676 22.6815 34.9991 22.8501 34.9991 23.0581V29.123H34.1433V27.4866C34.1433 27.2786 33.9749 27.11 33.7672 27.11C33.5594 27.11 33.391 27.2786 33.391 27.4866V29.123H32.5352V27.987C32.5352 27.5637 32.3706 27.1658 32.0717 26.8666L29.597 24.3884C29.8156 23.9464 29.7424 23.3953 29.3753 23.0276C28.9151 22.5668 28.1664 22.5669 27.7062 23.0276C27.246 23.4884 27.246 24.2382 27.7062 24.6991C27.9363 24.9294 28.2385 25.0447 28.5408 25.0447C28.7207 25.0447 28.9004 25.0028 29.0651 24.9211L31.5398 27.3993C31.6966 27.5563 31.7829 27.765 31.7829 27.987V29.123H30.953C30.7852 29.123 30.6184 29.1441 30.4571 29.1856C30.2559 29.2374 30.1348 29.4428 30.1865 29.6443C30.2383 29.8458 30.4434 29.9671 30.6446 29.9152C30.7446 29.8894 30.8484 29.8763 30.9529 29.8763H39.7977C40.477 29.8763 41.0296 30.4298 41.0296 31.11V39.9671C41.0296 40.0717 41.0166 40.1755 40.9909 40.2756C40.9392 40.4771 41.0604 40.6824 41.2615 40.7342C41.2929 40.7423 41.3244 40.7461 41.3555 40.7461C41.523 40.7461 41.6758 40.6332 41.7195 40.4631C41.7609 40.3018 41.7819 40.1349 41.7819 39.967V39.1359H45.1118C45.2692 39.6034 45.7109 39.9411 46.2302 39.9411C46.881 39.9411 47.4104 39.4109 47.4104 38.7593C47.4104 38.1076 46.8809 37.5774 46.2302 37.5774C45.7109 37.5774 45.2693 37.9151 45.1118 38.3826H41.7819V37.5255H43.416C43.6237 37.5255 43.7921 37.3569 43.7921 37.1489C43.7921 36.9408 43.6237 36.7722 43.416 36.7722H41.7819V35.9152H47.8384C48.0461 35.9152 48.2145 35.7466 48.2145 35.5386C48.2145 35.3305 48.0461 35.1619 47.8384 35.1619ZM46.7317 28.3915C46.8126 28.3105 46.92 28.266 47.0343 28.266C47.1486 28.266 47.256 28.3105 47.3369 28.3915C47.4177 28.4724 47.4622 28.58 47.4622 28.6945C47.4622 28.8089 47.4177 28.9165 47.3369 28.9975C47.256 29.0784 47.1486 29.123 47.0343 29.123C46.92 29.123 46.8126 29.0784 46.7317 28.9975C46.6509 28.9165 46.6064 28.8089 46.6064 28.6945C46.6064 28.58 46.6509 28.4724 46.7317 28.3915ZM28.8433 24.1664C28.6765 24.3334 28.405 24.3334 28.2381 24.1664C28.0712 23.9993 28.0712 23.7274 28.2381 23.5604C28.3215 23.4768 28.4311 23.4351 28.5407 23.4351C28.6503 23.4351 28.7599 23.4768 28.8433 23.5604C29.0101 23.7275 29.0101 23.9993 28.8433 24.1664ZM38.5916 25.097C38.3556 25.097 38.1637 24.9047 38.1637 24.6685C38.1637 24.4322 38.3556 24.24 38.5916 24.24C38.8275 24.24 39.0195 24.4322 39.0195 24.6685C39.0195 24.9047 38.8275 25.097 38.5916 25.097ZM46.2303 38.3308C46.4662 38.3308 46.6582 38.5231 46.6582 38.7593C46.6582 38.9956 46.4662 39.1878 46.2303 39.1878C45.9943 39.1878 45.8024 38.9956 45.8024 38.7593C45.8023 38.523 45.9943 38.3308 46.2303 38.3308Z" fill="white" stroke="#C0C0C0"/>
<path d="M43.0445 46.3781C42.6774 46.0105 42.127 45.9371 41.6856 46.156L39.2109 43.6778C39.0541 43.5209 38.9678 43.3121 38.9678 43.0901V41.9541H39.7977C39.9655 41.9541 40.1323 41.9331 40.2935 41.8915C40.4947 41.8397 40.6158 41.6343 40.5641 41.4328C40.5123 41.2314 40.3073 41.1101 40.106 41.1619C40.006 41.1877 39.9023 41.2008 39.7977 41.2008H30.953C30.2737 41.2008 29.721 40.6473 29.721 39.9671V31.11C29.721 31.0053 29.7341 30.9015 29.7598 30.8014C29.8116 30.5999 29.6905 30.3946 29.4893 30.3427C29.2881 30.2908 29.083 30.4121 29.0313 30.6135C28.9898 30.7749 28.9687 30.942 28.9687 31.11V31.9411H25.6388C25.4814 31.4737 25.0397 31.136 24.5204 31.136C23.8696 31.136 23.3402 31.6661 23.3402 32.3178C23.3402 32.9695 23.8697 33.4996 24.5204 33.4996C25.0397 33.4996 25.4813 33.1619 25.6388 32.6945H28.9687V33.5515H27.3346C27.1269 33.5515 26.9585 33.7202 26.9585 33.9282C26.9585 34.1362 27.1269 34.3049 27.3346 34.3049H28.9687V35.1619H22.9123C22.7045 35.1619 22.5361 35.3305 22.5361 35.5386C22.5361 35.7466 22.7045 35.9152 22.9123 35.9152H28.9687V36.7722H27.3346C27.1269 36.7722 26.9585 36.9409 26.9585 37.1489C26.9585 37.3569 27.1269 37.5256 27.3346 37.5256H28.9687V38.3826H27.8342C27.4116 38.3826 27.0142 38.5474 26.7154 38.8467L24.2415 41.324C24.0804 41.2436 23.9017 41.2008 23.7163 41.2008C23.401 41.2008 23.1047 41.3237 22.8817 41.5469C22.6589 41.7702 22.5361 42.067 22.5361 42.3826C22.5361 42.6983 22.6589 42.9951 22.8818 43.2184C23.1047 43.4416 23.4011 43.5645 23.7164 43.5645C24.0317 43.5645 24.328 43.4416 24.5509 43.2184C24.7739 42.9951 24.8966 42.6984 24.8966 42.3826C24.8966 42.197 24.8539 42.0181 24.7736 41.8567L27.2475 39.3794C27.4042 39.2224 27.6126 39.1359 27.8344 39.1359H28.9688V39.967C28.9688 41.0627 29.859 41.954 30.9531 41.954H31.783V45.2886C31.3162 45.4462 30.979 45.8885 30.979 46.4085C30.979 47.0602 31.5085 47.5904 32.1592 47.5904C32.8099 47.5904 33.3394 47.0602 33.3394 46.4085C33.3394 45.8885 33.0022 45.4463 32.5353 45.2886V41.954H33.3912V43.5904C33.3912 43.7984 33.5596 43.967 33.7673 43.967C33.975 43.967 34.1435 43.7984 34.1435 43.5904V41.954H34.9992V48.019C34.9992 48.227 35.1676 48.3957 35.3754 48.3957C35.5831 48.3957 35.7515 48.227 35.7515 48.019V41.9541H36.6073V43.5905C36.6073 43.7985 36.7757 43.9671 36.9835 43.9671C37.1912 43.9671 37.3596 43.7985 37.3596 43.5905V41.9541H38.2154V43.0901C38.2154 43.5134 38.38 43.9113 38.6789 44.2105L41.1536 46.6887C40.935 47.1307 41.0083 47.6818 41.3754 48.0495C41.6055 48.2799 41.9077 48.3951 42.21 48.3951C42.5122 48.3951 42.8145 48.2799 43.0445 48.0495C43.5047 47.5887 43.5047 46.8389 43.0445 46.3781ZM24.5204 32.7463C24.2844 32.7463 24.0925 32.554 24.0925 32.3178C24.0925 32.0815 24.2845 31.8893 24.5204 31.8893C24.7563 31.8893 24.9483 32.0816 24.9483 32.3178C24.9484 32.5541 24.7564 32.7463 24.5204 32.7463ZM24.0189 42.6856C23.9381 42.7666 23.8306 42.8112 23.7163 42.8112C23.602 42.8112 23.4946 42.7666 23.4138 42.6856C23.3329 42.6047 23.2884 42.4971 23.2884 42.3826C23.2884 42.2682 23.3329 42.1606 23.4138 42.0797C23.4946 41.9987 23.602 41.9541 23.7163 41.9541C23.8306 41.9541 23.9381 41.9987 24.0189 42.0797C24.0998 42.1606 24.1442 42.2682 24.1442 42.3826C24.1442 42.4971 24.0998 42.6047 24.0189 42.6856ZM32.587 46.4086C32.587 46.6449 32.3951 46.8371 32.1591 46.8371C31.9231 46.8371 31.7312 46.6449 31.7312 46.4086C31.7312 46.1724 31.9232 45.9801 32.1591 45.9801C32.395 45.9801 32.587 46.1724 32.587 46.4086ZM42.5126 47.5168C42.3457 47.6839 42.0742 47.6838 41.9074 47.5168C41.7405 47.3497 41.7405 47.0779 41.9074 46.9108C41.9908 46.8273 42.1004 46.7855 42.21 46.7855C42.3196 46.7855 42.4292 46.8273 42.5126 46.9108C42.6794 47.0779 42.6794 47.3497 42.5126 47.5168Z" fill="white" stroke="#C0C0C0"/>
<g clip-path="url(#clip1)">
<path d="M34.5089 38.6525C34.7833 38.6967 34.7918 38.7085 34.7952 38.9935M34.5089 38.6525L35.0459 39.6433C34.8782 39.6399 34.8003 39.5449 34.7986 39.3821C34.7977 39.3176 34.7973 39.2527 34.7969 39.1878C34.7965 39.1229 34.796 39.058 34.7952 38.9935M34.5089 38.6525C34.1582 38.5966 33.8143 38.5168 33.4924 38.3607L34.5089 38.6525ZM34.7952 38.9935L35.2952 38.987C35.2958 39.0401 35.2963 39.0934 35.2966 39.1457M34.7952 38.9935L35.2966 39.1457M35.3554 39.1456C35.3358 39.1457 35.3162 39.1457 35.2966 39.1457M35.3554 39.1456C35.3552 39.156 35.355 39.1665 35.3548 39.1771C35.3536 39.2424 35.3524 39.313 35.3524 39.3956C35.3524 39.3954 35.3528 39.3137 35.431 39.2317C35.5062 39.1527 35.5867 39.1429 35.6035 39.1419C35.6044 39.1418 35.6051 39.1418 35.6057 39.1417L35.6035 39.1418C35.5213 39.144 35.4385 39.1452 35.3554 39.1456ZM35.3554 39.1456C35.357 39.0568 35.3579 38.9762 35.3545 38.8855M35.2966 39.1457L35.6169 39.6416C35.7727 39.6382 35.8524 39.5534 35.8524 39.3956C35.8524 39.3327 35.8534 39.2695 35.8545 39.2063C35.8565 39.0923 35.8584 38.9781 35.854 38.8646M35.3545 38.8855C35.3545 38.8864 35.3546 38.8873 35.3546 38.8881L35.854 38.8646M35.3545 38.8855C35.3472 38.7214 35.3767 38.5227 35.5129 38.348C35.6451 38.1785 35.8235 38.1021 35.9638 38.0635L35.9648 38.0633C36.2671 37.9808 36.515 37.8227 36.7072 37.5878L36.7079 37.5869C37.2214 36.9621 37.046 36.0275 36.2744 35.6003M35.3545 38.8855C35.3545 38.885 35.3544 38.8844 35.3544 38.8838L35.854 38.8646M35.854 38.8646C35.8456 38.6848 35.9235 38.5932 36.0963 38.5457L36.2744 35.6003M36.2744 35.6003L36.5165 35.1628L36.2743 35.6002C36.2743 35.6003 36.2743 35.6003 36.2744 35.6003ZM36.2744 35.6003C36.0154 35.457 35.7415 35.3437 35.4373 35.2178M36.2744 35.6003L35.4373 35.2178M35.9015 31.9462V31.9462C35.9032 32.3109 35.9032 32.3126 36.2657 32.3686M35.9015 31.9462L36.1873 32.8624L36.2657 32.3686M35.9015 31.9462C35.9006 31.6893 35.9002 31.5608 35.8357 31.4965C35.7712 31.4322 35.6424 31.4322 35.3848 31.4322C35.3599 31.4322 35.3351 31.432 35.3102 31.4318C35.2605 31.4314 35.2108 31.431 35.1611 31.4322L35.9015 31.9462ZM36.2657 32.3686L36.1894 32.8628C36.1891 32.8627 36.1887 32.8627 36.1883 32.8626M36.2657 32.3686L36.1883 32.8626M36.1883 32.8626C36.3539 32.889 36.5152 32.9314 36.6749 32.9894M36.1883 32.8626C36.1843 32.862 36.1802 32.8614 36.1761 32.8607C36.0987 32.8488 36.0052 32.8344 35.9261 32.8131C35.8402 32.79 35.6893 32.7391 35.569 32.599C35.4487 32.4589 35.4212 32.3022 35.4113 32.2143C35.4023 32.1342 35.4019 32.041 35.4016 31.9641C35.4015 31.9589 35.4015 31.9536 35.4015 31.9485L35.4015 31.9478L35.4014 31.9322L35.3848 31.9322C35.3804 31.9322 35.3762 31.9321 35.372 31.9321L36.6749 32.9894M36.6749 32.9894C36.6705 33.0048 36.6661 33.02 36.6618 33.0352C36.6498 33.0774 36.638 33.1187 36.6262 33.1597C36.2301 33.0137 35.8175 32.9544 35.3919 32.9772L35.3919 32.9772L35.3892 32.9773C35.2533 32.9853 35.0701 33.0051 34.8809 33.088L34.8807 33.0881C34.5531 33.2318 34.3112 33.5133 34.261 33.8675C34.2104 34.224 34.3671 34.5633 34.6508 34.79L34.6513 34.7904C34.8689 34.9638 35.1047 35.0799 35.3216 35.1699L36.6749 32.9894ZM34.5597 32.4806L34.7308 32.9504C34.4203 33.0635 34.2025 33.2137 34.0583 33.3904C33.9174 33.5632 33.8224 33.7907 33.8034 34.1054L33.8034 34.1058C33.7875 34.3656 33.8462 34.5625 33.95 34.7263C34.0584 34.8972 34.2331 35.0581 34.4848 35.209L34.4852 35.2092C34.7004 35.3386 34.9079 35.4218 35.1514 35.5195C35.2826 35.5722 35.4243 35.629 35.5833 35.6995C35.7531 35.7741 35.9449 35.8726 36.1216 36.0205C36.4275 36.2744 36.5833 36.6442 36.5328 37.0196C36.482 37.3964 36.232 37.7126 35.8653 37.8736C35.5341 38.0191 35.1918 38.0501 34.8618 38.0086C34.5191 37.9659 34.1794 37.8855 33.8491 37.7502C33.8305 37.8155 33.8121 37.8816 33.7935 37.9488L33.9215 37.4678L33.6825 37.3925L33.6823 37.3924L33.4551 37.3208C33.5263 37.0951 33.5873 37.0663 33.7956 37.1749C34.1514 37.3598 34.5292 37.4633 34.924 37.5125C35.1798 37.5447 35.4288 37.5193 35.6643 37.4158C36.1048 37.2224 36.1726 36.7117 35.8015 36.4047C35.6762 36.2995 35.5322 36.2231 35.3814 36.157C35.2586 36.1025 35.134 36.0523 35.0096 36.0021C34.7426 35.8945 34.4761 35.7871 34.2276 35.6378C33.6364 35.2833 33.2603 34.7964 33.3043 34.0753C33.3535 33.261 33.8143 32.752 34.5597 32.4806ZM34.5597 32.4806C34.5651 32.4787 34.5704 32.4767 34.5755 32.4749C34.8681 32.3687 34.8698 32.3681 34.8714 32.0514L35.3714 32.0591C35.3714 32.0582 35.3714 32.0573 35.3714 32.0565C35.3714 32.0596 35.3714 32.0628 35.3714 32.066C35.371 32.1345 35.3706 32.2196 35.3623 32.2943C35.3526 32.3804 35.3272 32.5141 35.2327 32.642C35.1402 32.7672 35.0226 32.8307 34.9496 32.8648C34.8876 32.8937 34.8127 32.9208 34.7504 32.9433C34.7436 32.9458 34.7369 32.9482 34.7304 32.9506L34.5597 32.4806ZM35.4373 35.2178C35.3994 35.2021 35.361 35.1862 35.3221 35.17L35.4373 35.2178ZM36.8624 33.0648C36.8623 33.0648 36.8622 33.0647 36.862 33.0646L36.8624 33.0648ZM33.6611 38.0128L33.2857 37.9095L33.6611 38.0129L33.6611 38.0128Z" fill="white" stroke="#C0C0C0"/>
</g>
</g>
<path d="M6.2646 18.7061L35.3756 1.87548L64.4866 18.7061V52.371L35.3756 69.2016L6.2646 52.371V18.7061Z" stroke="#C0C0C0" stroke-width="3"/>
<defs>
<clipPath id="clip0">
<rect width="25.6786" height="25.7143" fill="white" transform="translate(22.5361 22.6814)"/>
</clipPath>
<clipPath id="clip1">
<rect width="8.20288" height="8.21428" fill="white" transform="translate(31.2739 31.4314)"/>
</clipPath>
</defs>
</svg>
