<svg width="20" height="18" viewBox="0 0 20 18" fill="none" xmlns="http://www.w3.org/2000/svg">
<path d="M19.4876 7.74931L17.2001 5.8913V3.00529C17.2001 2.94596 17.1764 2.88905 17.1342 2.8471C17.092 2.80514 17.0348 2.78157 16.9751 2.78157H16.2251C16.1654 2.78157 16.1082 2.80514 16.066 2.8471C16.0238 2.88905 16.0001 2.94596 16.0001 3.00529V4.91923L10.7572 0.664045C10.5428 0.492072 10.2756 0.398285 10.0001 0.398285C9.72458 0.398285 9.45739 0.492072 9.24295 0.664045L0.512578 7.74931C0.451001 7.79921 0.41184 7.87135 0.403686 7.94992C0.395531 8.02849 0.419048 8.10706 0.469078 8.16841L0.847828 8.63114C0.897813 8.6921 0.969987 8.73096 1.04864 8.73927C1.1273 8.74758 1.20608 8.72467 1.26783 8.67552L2.80008 7.43088V16.4916C2.80008 16.6498 2.86329 16.8016 2.97581 16.9135C3.08834 17.0253 3.24095 17.0882 3.40008 17.0882H8.20008C8.35921 17.0882 8.51182 17.0253 8.62434 16.9135C8.73686 16.8016 8.80008 16.6498 8.80008 16.4916V11.7189L11.2001 11.7301V16.5058C11.2001 16.664 11.2633 16.8157 11.3758 16.9276C11.4883 17.0395 11.6409 17.1024 11.8001 17.1024L16.6001 17.0901C16.7592 17.0901 16.9118 17.0272 17.0243 16.9153C17.1369 16.8034 17.2001 16.6517 17.2001 16.4935V7.43088L18.7323 8.67552C18.7941 8.72538 18.8732 8.74883 18.9523 8.74072C19.0314 8.73261 19.104 8.6936 19.1542 8.63226L19.533 8.16953C19.5578 8.13901 19.5763 8.10391 19.5875 8.06624C19.5987 8.02858 19.6022 7.98909 19.598 7.95005C19.5938 7.91101 19.5819 7.87318 19.5629 7.83873C19.544 7.80428 19.5184 7.77389 19.4876 7.74931ZM15.996 15.8999H15.9997L12.3997 15.911V11.132C12.3992 10.9742 12.3361 10.823 12.2241 10.7113C12.1121 10.5996 11.9602 10.5364 11.8016 10.5354L8.20158 10.5253C8.12263 10.5251 8.0444 10.5403 7.97139 10.5702C7.89838 10.6001 7.83202 10.644 7.7761 10.6994C7.72019 10.7548 7.67582 10.8207 7.64555 10.8932C7.61528 10.9657 7.5997 11.0434 7.5997 11.1219V15.8999H4.00008V6.45732L10.0001 1.58876L16.0001 6.45732L15.996 15.8999Z" fill="#028EB2"/>
</svg>
