<svg width="79" height="71" viewBox="0 0 79 71" fill="none" xmlns="http://www.w3.org/2000/svg">
<path d="M7.0618 18.6046L39.2808 1.69406L71.4997 18.6046V52.1868L39.2808 69.0974L7.0618 52.1868V18.6046Z" stroke="#C0C0C0" stroke-width="3"/>
<g clip-path="url(#clip0)">
<path d="M42.5953 35.5966C42.2904 35.5966 42.0428 35.8216 42.0428 36.0989C42.0428 36.3761 42.2904 36.6011 42.5953 36.6011C42.9002 36.6011 43.1478 36.3761 43.1478 36.0989C43.1478 35.8216 42.9002 35.5966 42.5953 35.5966Z" fill="white" stroke="#C0C0C0"/>
<path d="M30.7826 41.1104L25.258 47.4385C25.1262 47.5894 25.1012 47.7956 25.1933 47.969C25.2854 48.1426 25.4788 48.2529 25.6907 48.2529H52.8715C53.0834 48.2529 53.2768 48.1426 53.369 47.969C53.4613 47.7956 53.4361 47.5894 53.3042 47.4385L47.7797 41.1104C47.675 40.9903 47.5155 40.9203 47.347 40.9203H42.5076L46.6391 35.0292C47.6083 33.7083 48.1204 32.1679 48.1204 30.5743C48.1204 26.1435 44.1553 22.5386 39.2811 22.5386C34.407 22.5386 30.4418 26.1435 30.4418 30.5743C30.4418 32.1679 30.9539 33.7081 31.9231 35.0292L36.0547 40.9203H31.2153C31.0467 40.9203 30.8875 40.9903 30.7826 41.1104ZM28.7199 45.0888H32.0604L30.1751 47.2484H26.8345L28.7199 45.0888ZM36.7593 41.9247L38.2738 44.0843H34.3479L36.2333 41.9247H36.7593ZM41.8032 41.9247H42.3291L44.2144 44.0843H40.2887L41.8032 41.9247ZM45.0914 45.0888L46.9767 47.2484H31.5856L33.4711 45.0888H45.0914ZM48.3874 47.2484L46.5019 45.0888H49.8425L51.7278 47.2484H48.3874ZM48.9655 44.0843H45.6251L43.7396 41.9247H47.0802L48.9655 44.0843ZM32.8455 34.476C31.9958 33.3197 31.5468 31.9705 31.5468 30.5743C31.5468 26.6973 35.0164 23.543 39.2811 23.543C43.5458 23.543 47.0155 26.6973 47.0155 30.5743C47.0155 31.9705 46.5664 33.3197 45.717 34.476C45.7146 34.4789 45.7127 34.4819 45.7105 34.4848C45.3478 35.0022 39.5606 43.2541 39.2811 43.6523C38.5783 42.65 33.5675 35.5054 32.8517 34.4848C32.8498 34.4819 32.8476 34.4789 32.8455 34.476ZM34.8226 41.9247L32.9374 44.0843H29.5968L31.4822 41.9247H34.8226Z" fill="white" stroke="#C0C0C0"/>
<path d="M39.2805 35.5966C42.3134 35.5966 44.8051 33.3638 44.8051 30.5743C44.8051 27.8049 42.3268 25.5519 39.2805 25.5519C36.2343 25.5519 33.756 27.8049 33.756 30.5743C33.756 33.3646 36.2485 35.5966 39.2805 35.5966ZM39.2805 26.5564C41.7176 26.5564 43.7002 28.3588 43.7002 30.5743C43.7002 32.8104 41.7016 34.5921 39.2805 34.5921C36.8588 34.5921 34.8609 32.8104 34.8609 30.5743C34.8609 28.3588 36.8435 26.5564 39.2805 26.5564Z" fill="white" stroke="#C0C0C0"/>
<path d="M41.6074 37.3105C41.3463 37.1673 41.0067 37.2438 40.8491 37.4813L38.8072 40.561C38.6497 40.7986 38.7338 41.1072 38.9952 41.2504C39.2576 41.3942 39.5966 41.3162 39.7535 41.0796L41.7954 37.9999C41.9529 37.7623 41.8688 37.4537 41.6074 37.3105Z" fill="white" stroke="#C0C0C0"/>
</g>
<defs>
<clipPath id="clip0">
<rect width="28.2857" height="25.7143" fill="white" transform="translate(25.1377 22.5386)"/>
</clipPath>
</defs>
</svg>
